<svg width="34" height="39" viewBox="0 0 34 39" fill="none" xmlns="http://www.w3.org/2000/svg">
<path d="M21.4942 4.3323C21.3533 4.3328 21.2146 4.29598 21.0923 4.22553L16.8328 1.74191L12.5566 4.22553C12.465 4.27866 12.3638 4.3131 12.259 4.32689C12.1541 4.34068 12.0476 4.33354 11.9454 4.30589C11.8433 4.27823 11.7476 4.2306 11.6638 4.16572C11.5799 4.10083 11.5096 4.01996 11.4568 3.92772C11.4041 3.83549 11.3698 3.73369 11.3561 3.62814C11.3425 3.52259 11.3495 3.41536 11.377 3.31257C11.4045 3.20978 11.4518 3.11344 11.5163 3.02906C11.5807 2.94468 11.6611 2.8739 11.7527 2.82077L16.4365 0.11801C16.5585 0.0464382 16.6972 0.00872803 16.8384 0.00872803C16.9796 0.00872803 17.1183 0.0464382 17.2403 0.11801L21.9018 2.83201C22.0558 2.9207 22.1764 3.05822 22.2447 3.22312C22.313 3.38802 22.3251 3.57103 22.2792 3.7436C22.2333 3.91618 22.132 4.06862 21.991 4.17714C21.85 4.28566 21.6773 4.34417 21.4998 4.34353" fill="white"/>
<path d="M16.8327 25.679C16.7247 25.6791 16.6179 25.6573 16.5185 25.6149C16.4191 25.5725 16.3292 25.5103 16.2542 25.4322C16.1791 25.3541 16.1205 25.2615 16.0818 25.1601C16.0431 25.0586 16.0251 24.9504 16.0288 24.8418V19.4363C16.0288 19.2217 16.1135 19.0159 16.2643 18.8641C16.415 18.7124 16.6195 18.6271 16.8327 18.6271C17.0459 18.6271 17.2504 18.7124 17.4011 18.8641C17.5519 19.0159 17.6366 19.2217 17.6366 19.4363V24.8418C17.6366 25.0564 17.5519 25.2622 17.4011 25.414C17.2504 25.5657 17.0459 25.6509 16.8327 25.6509" fill="white"/>
<path d="M0.810963 16.3514C0.59776 16.3514 0.393289 16.2662 0.242532 16.1144C0.0917747 15.9627 0.00708008 15.7569 0.00708008 15.5423V10.1143C0.00708007 10.008 0.0278731 9.90281 0.068272 9.80464C0.108671 9.70647 0.167885 9.61727 0.242532 9.54214C0.31718 9.467 0.405799 9.4074 0.50333 9.36674C0.600862 9.32608 0.705395 9.30515 0.810963 9.30515C0.91653 9.30515 1.02106 9.32608 1.1186 9.36674C1.21613 9.4074 1.30475 9.467 1.37939 9.54214C1.45404 9.61727 1.51326 9.70647 1.55365 9.80464C1.59405 9.90281 1.61485 10.008 1.61485 10.1143V15.5423C1.61485 15.7569 1.53015 15.9627 1.37939 16.1144C1.22864 16.2662 1.02417 16.3514 0.810963 16.3514" fill="white"/>
<path d="M32.8378 16.3514C32.6246 16.3514 32.4201 16.2662 32.2694 16.1144C32.1186 15.9627 32.0339 15.7569 32.0339 15.5423V10.1143C32.0339 10.008 32.0547 9.90281 32.0951 9.80464C32.1355 9.70647 32.1947 9.61727 32.2694 9.54214C32.344 9.467 32.4327 9.4074 32.5302 9.36674C32.6277 9.32608 32.7322 9.30515 32.8378 9.30515C32.9434 9.30515 33.0479 9.32608 33.1454 9.36674C33.243 9.4074 33.3316 9.467 33.4062 9.54214C33.4809 9.61727 33.5401 9.70647 33.5805 9.80464C33.6209 9.90281 33.6417 10.008 33.6417 10.1143V15.5423C33.6417 15.7569 33.557 15.9627 33.4062 16.1144C33.2555 16.2662 33.051 16.3514 32.8378 16.3514" fill="white"/>
<path d="M32.8434 29.5674C32.6331 29.5675 32.4311 29.4846 32.2808 29.3364C32.1306 29.1883 32.0439 28.9868 32.0396 28.7752V23.3247C32.0396 23.1101 32.1242 22.9043 32.275 22.7525C32.4258 22.6008 32.6302 22.5155 32.8434 22.5155C33.0566 22.5155 33.2611 22.6008 33.4119 22.7525C33.5626 22.9043 33.6473 23.1101 33.6473 23.3247V28.7752C33.6473 28.9897 33.5626 29.1956 33.4119 29.3473C33.2611 29.499 33.0566 29.5843 32.8434 29.5843V29.5674Z" fill="white"/>
<path d="M0.810963 29.5674C0.60063 29.5675 0.398658 29.4846 0.248372 29.3364C0.0980874 29.1883 0.011462 28.9868 0.00708008 28.7752V23.3247C0.00708007 23.2184 0.0278731 23.1132 0.068272 23.015C0.108671 22.9169 0.167885 22.8277 0.242532 22.7525C0.31718 22.6774 0.405799 22.6178 0.50333 22.5771C0.600862 22.5365 0.705395 22.5155 0.810963 22.5155C0.91653 22.5155 1.02106 22.5365 1.1186 22.5771C1.21613 22.6178 1.30475 22.6774 1.37939 22.7525C1.45404 22.8277 1.51326 22.9169 1.55365 23.015C1.59405 23.1132 1.61485 23.2184 1.61485 23.3247V28.7752C1.61485 28.9897 1.53015 29.1956 1.37939 29.3473C1.22864 29.499 1.02417 29.5843 0.810963 29.5843" fill="white"/>
<path d="M16.8327 7.53514C16.6195 7.53514 16.415 7.44989 16.2643 7.29815C16.1135 7.14641 16.0288 6.9406 16.0288 6.726V0.809142C16.0288 0.594544 16.1135 0.388735 16.2643 0.236991C16.415 0.0852477 16.6195 0 16.8327 0C17.0459 0 17.2504 0.0852477 17.4011 0.236991C17.5519 0.388735 17.6366 0.594544 17.6366 0.809142V6.726C17.6366 6.9406 17.5519 7.14641 17.4011 7.29815C17.2504 7.44989 17.0459 7.53514 16.8327 7.53514" fill="white"/>
<path d="M16.8327 38.8894C16.6195 38.8894 16.415 38.8042 16.2643 38.6524C16.1135 38.5007 16.0288 38.2949 16.0288 38.0803V32.6579C16.0288 32.4433 16.1135 32.2375 16.2643 32.0857C16.415 31.934 16.6195 31.8488 16.8327 31.8488C17.0459 31.8488 17.2504 31.934 17.4011 32.0857C17.5519 32.2375 17.6366 32.4433 17.6366 32.6579V38.0859C17.6351 38.2995 17.5498 38.5039 17.3992 38.6544C17.2486 38.8049 17.0449 38.8894 16.8327 38.8894" fill="white"/>
<path d="M16.8328 38.8894C16.6918 38.8897 16.5533 38.8529 16.4308 38.7827L11.7415 36.0799C11.5564 35.9726 11.4213 35.7957 11.3658 35.5881C11.3103 35.3805 11.339 35.1592 11.4456 34.973C11.5522 34.7867 11.728 34.6506 11.9342 34.5948C12.1405 34.5389 12.3603 34.5678 12.5454 34.6751L16.8383 37.1756L21.0699 34.7089C21.2465 34.6434 21.4403 34.6424 21.6175 34.706C21.7948 34.7696 21.9442 34.8938 22.0399 35.0569C22.1355 35.2201 22.1713 35.4118 22.1409 35.5987C22.1106 35.7856 22.016 35.9559 21.8738 36.0799L17.2403 38.7827C17.118 38.8534 16.9793 38.8902 16.8383 38.8894" fill="white"/>
<path d="M16.8328 20.2454C16.6919 20.2457 16.5533 20.2089 16.4309 20.1387L11.7527 17.419C11.5677 17.3117 11.4325 17.1348 11.377 16.9272C11.3215 16.7197 11.3502 16.4984 11.4568 16.3121C11.5634 16.1258 11.7392 15.9898 11.9454 15.9339C12.1517 15.8781 12.3715 15.907 12.5566 16.0143L16.8328 18.4979L21.0923 16.0143C21.2758 15.9195 21.4884 15.8993 21.6863 15.9578C21.8842 16.0164 22.0521 16.1493 22.1554 16.329C22.2586 16.5087 22.2893 16.7215 22.241 16.9234C22.1928 17.1252 22.0693 17.3006 21.8962 17.4134L17.2348 20.133C17.1125 20.2037 16.9738 20.2406 16.8328 20.2398" fill="white"/>
<path d="M28.1707 13.643C27.9933 13.6437 27.8206 13.5852 27.6796 13.4766C27.5386 13.3681 27.4372 13.2157 27.3913 13.0431C27.3455 12.8705 27.3576 12.6875 27.4259 12.5226C27.4942 12.3577 27.6147 12.2202 27.7688 12.1315L32.4358 9.41751C32.6136 9.34842 32.81 9.34517 32.99 9.40834C33.1699 9.4715 33.3218 9.59697 33.4183 9.76236C33.5149 9.92775 33.55 10.1223 33.5172 10.3113C33.4845 10.5003 33.3861 10.6714 33.2397 10.7942L28.5727 13.5082C28.4503 13.5786 28.3117 13.6154 28.1707 13.6149" fill="white"/>
<path d="M32.8377 10.9234C32.6967 10.9242 32.5581 10.8874 32.4358 10.8167L27.7632 8.09706C27.5782 7.98976 27.443 7.81285 27.3875 7.60526C27.332 7.39766 27.3607 7.17639 27.4673 6.9901C27.574 6.80382 27.7497 6.66779 27.9559 6.61194C28.1622 6.55609 28.382 6.58499 28.5671 6.69229L33.2397 9.41191C33.3937 9.5006 33.5143 9.63812 33.5826 9.80302C33.6509 9.96792 33.663 10.1509 33.6171 10.3235C33.5712 10.4961 33.4699 10.6485 33.3289 10.757C33.1879 10.8656 33.0152 10.9241 32.8377 10.9234" fill="white"/>
<path d="M5.47791 13.6431C5.33694 13.6436 5.19833 13.6067 5.07596 13.5363L0.408973 10.7942C0.223901 10.6869 0.0887559 10.51 0.0332688 10.3024C-0.0222183 10.0948 0.00649712 9.87353 0.113099 9.68725C0.2197 9.50096 0.395456 9.36493 0.601701 9.30908C0.807945 9.25323 1.02778 9.28214 1.21286 9.38944L5.88543 12.1034C6.0395 12.1921 6.16008 12.3296 6.22835 12.4945C6.29663 12.6594 6.30878 12.8425 6.26289 13.015C6.217 13.1876 6.11565 13.34 5.97467 13.4486C5.83368 13.5571 5.66097 13.6156 5.48349 13.615" fill="white"/>
<path d="M0.810883 10.9234C0.633396 10.9241 0.460692 10.8656 0.319705 10.757C0.178718 10.6485 0.0773762 10.4961 0.0314856 10.3235C-0.014405 10.1509 -0.00226333 9.96792 0.0660154 9.80302C0.134294 9.63812 0.254871 9.5006 0.408941 9.41191L5.07593 6.70352C5.261 6.59622 5.48084 6.56732 5.68709 6.62317C5.89333 6.67902 6.06909 6.81505 6.17569 7.00133C6.28229 7.18762 6.31101 7.40889 6.25552 7.61649C6.20003 7.82408 6.06489 8.00099 5.87982 8.10829L1.21283 10.7942C1.09036 10.8644 0.951812 10.9012 0.810883 10.901" fill="white"/>
<path d="M28.1651 32.2814C27.9876 32.2821 27.8149 32.2236 27.674 32.115C27.533 32.0065 27.4316 31.8541 27.3857 31.6815C27.3398 31.5089 27.352 31.3259 27.4203 31.161C27.4885 30.9961 27.6091 30.8586 27.7632 30.7699L32.4413 28.0559C32.533 28.0028 32.6341 27.9683 32.739 27.9546C32.8438 27.9408 32.9504 27.9479 33.0525 27.9756C33.1546 28.0032 33.2503 28.0508 33.3342 28.1157C33.418 28.1806 33.4883 28.2615 33.5411 28.3537C33.5939 28.446 33.6281 28.5478 33.6418 28.6533C33.6555 28.7589 33.6484 28.8661 33.6209 28.9689C33.5935 29.0717 33.5461 29.168 33.4817 29.2524C33.4172 29.3368 33.3369 29.4075 33.2452 29.4607L28.5671 32.1747C28.4447 32.2451 28.3061 32.2819 28.1651 32.2814Z" fill="white"/>
<path d="M32.8377 29.5674C32.6967 29.5682 32.5581 29.5313 32.4358 29.4607L27.7632 26.7467C27.5782 26.6394 27.443 26.4624 27.3875 26.2549C27.332 26.0473 27.3607 25.826 27.4673 25.6397C27.574 25.4534 27.7497 25.3174 27.9559 25.2615C28.1622 25.2057 28.382 25.2346 28.5671 25.3419L33.2397 28.0559C33.3937 28.1446 33.5143 28.2821 33.5826 28.447C33.6509 28.6119 33.663 28.7949 33.6171 28.9675C33.5712 29.1401 33.4699 29.2925 33.3289 29.401C33.1879 29.5095 33.0152 29.5681 32.8377 29.5674" fill="white"/>
<path d="M5.47787 32.2871C5.33691 32.2876 5.19829 32.2507 5.07593 32.1803L0.403357 29.4607C0.218285 29.3534 0.0831404 29.1765 0.0276533 28.9689C-0.0278338 28.7613 0.000882671 28.54 0.107484 28.3537C0.214086 28.1674 0.389841 28.0314 0.596085 27.9756C0.80233 27.9197 1.02217 27.9486 1.20724 28.0559L5.87981 30.7755C6.03388 30.8642 6.15446 31.0017 6.22274 31.1666C6.29102 31.3315 6.30316 31.5145 6.25727 31.6871C6.21138 31.8597 6.11004 32.0121 5.96905 32.1207C5.82806 32.2292 5.65536 32.2877 5.47787 32.2871Z" fill="white"/>
<path d="M0.810883 29.5674C0.633396 29.5681 0.460692 29.5095 0.319705 29.401C0.178718 29.2925 0.0773761 29.1401 0.0314856 28.9675C-0.014405 28.7949 -0.00226333 28.6119 0.0660154 28.447C0.134294 28.2821 0.254871 28.1446 0.408941 28.0559L5.07035 25.3363C5.25542 25.229 5.47526 25.2001 5.6815 25.2559C5.88775 25.3118 6.06351 25.4478 6.17011 25.6341C6.27671 25.8204 6.30542 26.0416 6.24994 26.2492C6.19445 26.4568 6.0593 26.6337 5.87423 26.741L1.21282 29.455C1.09046 29.5255 0.951845 29.5623 0.810883 29.5618" fill="white"/>
<g opacity="0.2">
<path d="M0.810902 10.5751C0.710157 10.575 0.612236 10.5415 0.532318 10.4798C0.4524 10.4181 0.39495 10.3315 0.368873 10.2336C0.342796 10.1356 0.349548 10.0317 0.388085 9.93804C0.426621 9.84435 0.494788 9.76607 0.582019 9.71534L16.6039 0.404578C16.7088 0.345969 16.8325 0.331209 16.9482 0.363476C17.0638 0.395743 17.1623 0.472456 17.2223 0.577088C17.2824 0.681721 17.2992 0.805901 17.2691 0.922877C17.239 1.03985 17.1645 1.14027 17.0616 1.20248L1.03979 10.5132C0.970204 10.5537 0.891264 10.575 0.810902 10.5751" fill="white"/>
</g>
<g opacity="0.2">
<path d="M0.810902 29.2191C0.710157 29.219 0.612236 29.1855 0.532318 29.1238C0.4524 29.0621 0.39495 28.9755 0.368873 28.8776C0.342796 28.7796 0.349548 28.6757 0.388085 28.582C0.426621 28.4884 0.494788 28.4101 0.582019 28.3593L32.609 9.71534C32.7139 9.65673 32.8376 9.64197 32.9533 9.67424C33.0689 9.7065 33.1674 9.78322 33.2274 9.88785C33.2875 9.99248 33.3042 10.1167 33.2742 10.2336C33.2441 10.3506 33.1696 10.451 33.0667 10.5132L1.03979 29.1572C0.970204 29.1977 0.891264 29.219 0.810902 29.2191" fill="white"/>
</g>
<g opacity="0.2">
<path d="M32.8379 10.5751C32.7575 10.575 32.6786 10.5537 32.609 10.5132L16.6039 1.2081C16.501 1.14588 16.4265 1.04547 16.3964 0.928492C16.3664 0.811516 16.3832 0.687336 16.4432 0.582704C16.5032 0.478071 16.6017 0.401358 16.7174 0.369091C16.833 0.336824 16.9567 0.351585 17.0617 0.410193L33.0667 9.71534C33.154 9.76607 33.2221 9.84435 33.2607 9.93804C33.2992 10.0317 33.306 10.1356 33.2799 10.2336C33.2538 10.3315 33.1964 10.4181 33.1164 10.4798C33.0365 10.5415 32.9386 10.575 32.8379 10.5751" fill="white"/>
</g>
<g opacity="0.2">
<path d="M32.8377 29.2191C32.7573 29.2193 32.6783 29.198 32.6089 29.1572L0.581911 10.5132C0.479009 10.451 0.404505 10.3506 0.374448 10.2336C0.34439 10.1167 0.361184 9.99248 0.421213 9.88785C0.481242 9.78322 0.579701 9.7065 0.695381 9.67424C0.811062 9.64197 0.934705 9.65673 1.03968 9.71534L33.0722 28.3593C33.1594 28.4101 33.2276 28.4884 33.2661 28.582C33.3047 28.6757 33.3114 28.7796 33.2853 28.8776C33.2593 28.9755 33.2018 29.0621 33.1219 29.1238C33.042 29.1855 32.9441 29.219 32.8433 29.2191" fill="white"/>
</g>
<g opacity="0.2">
<path d="M16.8326 38.5523C16.7523 38.5522 16.6733 38.5309 16.6038 38.4905L0.581911 29.1572C0.479009 29.095 0.404505 28.9946 0.374448 28.8776C0.34439 28.7606 0.361184 28.6365 0.421213 28.5318C0.481242 28.4272 0.579701 28.3505 0.695381 28.3182C0.811062 28.286 0.934705 28.3007 1.03968 28.3593L17.0615 37.6869C17.1488 37.7377 17.2169 37.816 17.2555 37.9096C17.294 38.0033 17.3007 38.1072 17.2747 38.2052C17.2486 38.3031 17.1911 38.3897 17.1112 38.4514C17.0313 38.5131 16.9334 38.5466 16.8326 38.5467" fill="white"/>
</g>
<g opacity="0.2">
<path d="M16.8382 38.5523C16.7375 38.5522 16.6396 38.5188 16.5597 38.457C16.4797 38.3953 16.4223 38.3087 16.3962 38.2108C16.3701 38.1128 16.3769 38.009 16.4154 37.9153C16.454 37.8216 16.5221 37.7433 16.6094 37.6926L32.6089 28.3593C32.7139 28.3007 32.8375 28.286 32.9532 28.3182C33.0689 28.3505 33.1673 28.4272 33.2273 28.5318C33.2874 28.6365 33.3042 28.7606 33.2741 28.8776C33.2441 28.9946 33.1695 29.095 33.0666 29.1572L17.0671 38.4905C16.9975 38.5309 16.9186 38.5522 16.8382 38.5523" fill="white"/>
</g>
<g opacity="0.2">
<path d="M0.810859 29.2191C0.69424 29.2163 0.583078 29.1688 0.500075 29.0863C0.417072 29.0038 0.368493 28.8925 0.364258 28.7752V10.1143C0.364258 9.99209 0.412487 9.8749 0.498335 9.78849C0.584183 9.70208 0.700617 9.65353 0.822025 9.65353C0.943432 9.65353 1.05987 9.70208 1.14572 9.78849C1.23156 9.8749 1.27979 9.99209 1.27979 10.1143V28.7752C1.27979 28.8974 1.23156 29.0146 1.14572 29.101C1.05987 29.1874 0.943432 29.2359 0.822025 29.2359" fill="white"/>
</g>
<g opacity="0.2">
<path d="M32.8435 29.2191C32.7221 29.2191 32.6057 29.1705 32.5198 29.0841C32.434 28.9977 32.3857 28.8805 32.3857 28.7583V10.1143C32.3857 9.99209 32.434 9.8749 32.5198 9.78849C32.6057 9.70208 32.7221 9.65353 32.8435 9.65353C32.9649 9.65353 33.0814 9.70208 33.1672 9.78849C33.253 9.8749 33.3013 9.99209 33.3013 10.1143V28.7752C33.3013 28.8974 33.253 29.0146 33.1672 29.101C33.0814 29.1874 32.9649 29.2359 32.8435 29.2359" fill="white"/>
</g>
<g opacity="0.2">
<path d="M16.8328 38.4961C16.7114 38.4961 16.5949 38.4476 16.5091 38.3611C16.4232 38.2747 16.375 38.1575 16.375 38.0353V0.80915C16.375 0.686949 16.4232 0.569753 16.5091 0.483343C16.5949 0.396934 16.7114 0.348389 16.8328 0.348389C16.9542 0.348389 17.0706 0.396934 17.1565 0.483343C17.2423 0.569753 17.2905 0.686949 17.2905 0.80915V38.0353C17.2905 38.1575 17.2423 38.2747 17.1565 38.3611C17.0706 38.4476 16.9542 38.4961 16.8328 38.4961" fill="white"/>
</g>
</svg>
